<svg width="24" height="24" viewBox="0 0 24 24" fill="none" xmlns="http://www.w3.org/2000/svg">
<path d="M19.9214 1.30748L1.32809 19.4032C0.594611 20.117 0.615737 21.2546 1.37528 21.9439C2.13482 22.6333 3.34517 22.6134 4.07865 21.8996L22.6719 3.80388C23.4054 3.09003 23.3843 1.95249 22.6247 1.26313C21.8652 0.573768 20.6548 0.593624 19.9214 1.30748Z" fill="black"/>
<path d="M1.32865 3.78892L19.9219 21.8846C20.6554 22.5985 21.8657 22.6183 22.6253 21.929C23.3848 21.2396 23.4059 20.1021 22.6725 19.3882L4.0792 1.29252C3.34572 0.578664 2.13538 0.558808 1.37584 1.24817C0.616295 1.93753 0.595168 3.07507 1.32865 3.78892Z" fill="black"/>
</svg>
