<svg width="60" height="60" viewBox="0 0 60 60" fill="none" xmlns="http://www.w3.org/2000/svg">
<mask id="mask0_53_189" style="mask-type:luminance" maskUnits="userSpaceOnUse" x="0" y="0" width="60" height="60">
<path d="M60 0H0V60H60V0Z" fill="white"/>
</mask>
<g mask="url(#mask0_53_189)">
<path d="M45.6532 40.6819C48.3759 39.5961 50.8671 37.9858 52.9891 35.9088C57.2112 31.7807 59.4433 26.331 59.278 20.5613C58.9528 9.22636 48.8223 0 36.6967 0H0V9.44131H36.6967C43.498 9.44131 49.1807 14.5451 49.3624 20.8236C49.4507 24.0179 48.216 27.039 45.879 29.3207C44.1595 31.0045 42.0099 32.1322 39.6564 32.6095L37.3085 29.4467C32.2984 22.4023 23.9758 18.1957 15.0358 18.1957H0.00555329V42.3131H34.7124L47.8469 60H60L45.6532 40.6819ZM9.92651 32.8718V27.637H15.0358C19.8365 27.637 24.3561 29.5621 27.5418 32.8718H9.92651Z" fill="white"/>
</g>
</svg>
