<svg width="200" height="200" viewBox="0 0 200 200" fill="none" xmlns="http://www.w3.org/2000/svg">
<g clip-path="url(#clip0_65_7)">
<path d="M185.967 14.0333C171.933 0 149.342 0 104.167 0H95.8333C50.6583 0 28.0667 0 14.0333 14.0333C0 28.0667 0 50.6583 0 95.8333V104.167C0 149.342 0 171.925 14.0333 185.967C28.0667 200.008 50.6583 200 95.8333 200H104.167C149.342 200 171.925 200 185.967 185.967C200 171.933 200 149.342 200 104.167V95.8333C200 50.6583 200 28.0667 185.967 14.0333ZM162.525 141.667H147.942C142.383 141.667 140.75 137.233 130.858 127.342C122.2 119 118.492 117.917 116.333 117.917C113.392 117.917 112.517 118.75 112.517 122.917V135.992C112.517 139.575 111.375 141.667 102.1 141.667C86.65 141.667 69.6667 132.283 57.6083 114.983C39.525 89.6417 34.5833 70.4833 34.5833 66.625C34.5833 64.4583 35.4167 62.5 39.5833 62.5H54.175C57.9 62.5 59.3 64.1333 60.7 68.1667C67.8333 88.9417 79.8667 107.1 84.8083 107.1C86.6583 107.1 87.5083 106.242 87.5083 101.542V80.0667C86.9667 70.1833 81.7083 69.3667 81.7083 65.85C81.7083 64.225 83.1 62.5 85.4167 62.5H108.342C111.433 62.5 112.508 64.15 112.508 67.8583V96.75C112.508 99.8333 113.85 100.917 114.775 100.917C116.633 100.917 118.175 99.8333 121.575 96.4333C132.083 84.6917 139.5 66.6167 139.5 66.6167C140.433 64.45 142.133 62.4917 145.85 62.4917H160.433C164.842 62.4917 165.775 64.7583 164.842 67.85C162.983 76.35 145.217 101.375 145.217 101.375C143.667 103.85 143.05 105.083 145.217 107.867C146.767 110.033 151.858 114.358 155.258 118.375C161.525 125.425 166.25 131.367 167.567 135.467C168.783 139.583 166.692 141.667 162.525 141.667Z" fill="black"/>
</g>
<defs>
<clipPath id="clip0_65_7">
<rect width="200" height="200" fill="white"/>
</clipPath>
</defs>
</svg>
